<svg xmlns="http://www.w3.org/2000/svg" viewBox="0 0 512 512">
  <defs>
    <linearGradient id="g" x1="0" y1="0" x2="1" y2="1">
      <stop offset="0%" stop-color="#ff9f40"/>
      <stop offset="100%" stop-color="#ff6b5c"/>
    </linearGradient>
  </defs>
  <rect width="512" height="512" rx="112" fill="#0c0d10"/>
  <rect x="64" y="64" width="384" height="384" rx="80" fill="url(#g)" opacity="0.18"/>
  <path d="M188 140v232c0 26-21 46-47 46s-47-20-47-46 21-47 47-47c7 0 14 2 20 5V182l152-38v182c0 26-21 46-47 46s-47-20-47-46 21-47 47-47c7 0 14 2 20 5V140z" fill="url(#g)"/>
</svg>
